<svg width="616" height="601" viewBox="0 0 616 601" fill="none" xmlns="http://www.w3.org/2000/svg">
<g clip-path="url(#clip0_6_9)">
<path fill-rule="evenodd" clip-rule="evenodd" d="M381.646 113.89C319.451 120.116 268.736 160.156 249.555 218.177C246.925 226.132 246.001 227.713 244.39 227.014C197.885 206.84 145.495 228.928 130.509 275.03C128.87 280.066 127.53 285.538 127.53 287.188C127.532 289.485 127.07 290.014 125.556 289.448C110.019 283.63 74.8471 288.101 54.3358 298.502C-10.6799 331.47 -19.2115 423.546 38.788 466.314C65.4901 486.005 78.9081 488.642 149.588 488.084L195.106 487.725L198.615 483.892C203.186 478.899 203.431 472.318 199.224 467.542L196.321 464.248L142.977 463.602L89.6326 462.956L79.983 459.822C23.7484 441.553 6.44646 375.3 47.4058 335.074C69.8036 313.076 99.7304 305.898 127.259 315.919C145.328 322.497 152.041 318.778 151.722 302.366C150.797 254.674 204.546 227.27 243.288 255.682C256.81 265.6 266.913 262.191 268.852 247.052C278.447 172.119 357 121.794 431.685 142.731C494.623 160.375 535.581 223.147 523.906 284.067C519.263 308.29 519.963 310.308 534.482 314.565C608.509 336.273 609.54 435.441 535.992 459.878L526.367 463.075L404.852 463.365C338.018 463.524 282.1 463.934 280.591 464.277C271.042 466.442 271.317 482.708 280.971 486.645C286.06 488.718 506.926 489.121 525.108 487.089C596.428 479.119 637.537 404.387 605.161 341.563C595.369 322.563 578.034 306.077 558.752 297.43C549.37 293.222 548.636 292.643 549.233 289.936C551.155 281.23 551.195 251.304 549.299 240.051C536.055 161.433 462.163 105.829 381.646 113.89ZM391.271 161.409C386.572 163.401 383.274 169.903 384.407 174.936C386.432 183.935 399.168 187.755 405.744 181.34C416.185 171.153 404.911 155.627 391.271 161.409ZM435.712 175.519C428.015 181.837 430.02 190.766 440.686 197.673C462.339 211.696 477.522 237.366 477.62 260.122C477.682 274.343 490.282 281.304 499.565 272.245L503.26 268.642L502.528 256.693C500.537 224.149 483.076 194.907 454.808 176.78C446.652 171.548 441.004 171.175 435.712 175.519ZM230.7 464.931C222.612 469.525 223.924 483.007 232.81 486.63C245.471 491.791 256.372 476.497 246.733 467.093C242.98 463.431 235.187 462.379 230.7 464.931Z" fill="#363C48"/>
</g>
<defs>
<clipPath id="clip0_6_9">
<rect width="616" height="601" fill="white"/>
</clipPath>
</defs>
</svg>
